# Alias OBJ Model File
# Exported from SketchUp, (c) 2000-2012 Trimble Navigation Limited
# File units = millimeters

mtllib simple turret 1.mtl

g Mesh1 Model

usemtl FrontColor
v 3059.95 0 -298.017
vt -120.471 11.733
vn 0 -1 -0
v 559.951 0 -298.017
vt -22.0453 11.733
v 559.951 0 -2798.02
vt -22.0453 110.158
v 3059.95 0 -2798.02
vt -120.471 110.158
f 1/1/1 2/2/1 3/3/1 4/4/1 

v 859.951 500 -598.017
vt 33.8563 28.9931
vn 4.46508e-18 0.514496 0.857493
vt 22.0453 6.03656
vt 120.471 6.03656
v 2759.95 500 -598.017
vt 108.659 28.9931
f 5/5/2 2/6/2 1/7/2 6/8/2 

v 859.951 500 -2498.02
vt -98.3471 34.2987
vn -0.857493 0.514496 -2.22633e-18
vt -110.158 11.3422
vt -11.733 11.3422
vt -23.544 34.2987
f 7/9/3 3/10/3 2/11/3 5/12/3 

vt -22.0453 -56.6759
vn 1.67434e-18 0.514496 -0.857493
vt -33.8563 -33.7194
v 2759.95 500 -2498.02
vt -108.659 -33.7194
vt -120.471 -56.6759
f 3/13/4 7/14/4 8/15/4 4/16/4 

vt -33.8563 98.3471
vt -108.659 98.3471
vt -108.659 23.544
vt -33.8563 23.544
f 7/17/1 8/18/1 6/19/1 5/20/1 

vt -33.8563 19.685
vn 0 0 -1
v 859.951 750 -2498.02
vt -33.8563 29.5276
v 2759.95 750 -2498.02
vt -108.659 29.5276
vt -108.659 19.685
f 7/21/5 9/22/5 10/23/5 8/24/5 

vt -23.544 19.685
vn -1 3.60956e-16 -4.74942e-17
v 859.951 750 -598.017
vt -23.544 29.5276
vt -98.3471 29.5276
vt -98.3471 19.685
f 5/25/6 11/26/6 9/27/6 7/28/6 

v 2759.95 750 -598.017
vt 108.659 29.5276
vn 0 0 1
vt 33.8563 29.5276
vt 33.8563 19.685
vt 108.659 19.685
f 12/29/7 11/30/7 5/31/7 6/32/7 

vt 108.659 23.544
vn 0 1 -0
vt 108.659 98.3471
vt 33.8563 98.3471
vt 33.8563 23.544
f 12/33/8 10/34/8 9/35/8 11/36/8 

vt 98.3471 29.5276
vn 1 0 -0
vt 23.544 29.5276
vt 23.544 19.685
vt 98.3471 19.685
f 10/37/9 12/38/9 6/39/9 8/40/9 

v 2409.95 1000 -948.017
vt 37.3235 -54.3236
vn 0.581238 0.813733 -2.53257e-18
vt 23.544 -71.2573
vt 98.3471 -71.2573
v 2409.95 1000 -2148.02
vt 84.5676 -54.3236
f 13/41/10 12/42/10 10/43/10 14/44/10 

vt 108.659 36.3211
vn 2.53257e-18 0.813733 0.581238
vt 94.88 53.2548
v 1209.95 1000 -948.017
vt 47.6359 53.2548
vt 33.8563 36.3211
f 12/45/11 13/46/11 15/47/11 11/48/11 

v 2109.95 1833.35 -948.017
vt 83.0689 72.179
v 1509.95 1833.35 -948.017
vt 59.4469 72.179
vt 47.6359 39.3701
vt 94.88 39.3701
f 16/49/7 17/50/7 15/51/7 13/52/7 

v 2109.95 2000 -1248.02
vt 83.0689 81.1893
vn 0 0.874174 0.485612
v 1509.95 2000 -1248.02
vt 59.4469 81.1893
vt 59.4469 67.6783
vt 83.0689 67.6783
f 18/53/12 19/54/12 17/55/12 16/56/12 

v 1509.95 2000 -1848.02
vt 59.4469 72.7566
vt 59.4469 49.1345
vt 83.0689 49.1345
v 2109.95 2000 -1848.02
vt 83.0689 72.7566
f 20/57/8 19/58/8 18/59/8 21/60/8 

vt -49.1345 90.2041
vn -0.485612 0.874174 -0
vt -72.7566 90.2041
v 1209.95 1833.35 -1848.02
vt -72.7566 76.6931
v 1209.95 1833.35 -1248.02
vt -49.1345 76.6931
f 19/61/13 20/62/13 22/63/13 23/64/13 

vt -93.482 41.2426
vn -0.43683 0.786359 -0.43683
v 1509.95 1833.35 -2148.02
vt -101.834 30.6219
vt -85.1303 30.6219
f 20/65/14 24/66/14 22/67/14

v 2109.95 1833.35 -2148.02
vt -83.0689 -38.8758
vn 0 0.874174 -0.485612
vt -59.4469 -38.8758
vt -59.4469 -25.3648
vt -83.0689 -25.3648
f 25/68/15 24/69/15 20/70/15 21/71/15 

vt -94.88 39.3701
v 1209.95 1000 -2148.02
vt -47.6359 39.3701
vt -59.4469 72.179
vt -83.0689 72.179
f 14/72/5 26/73/5 24/74/5 25/75/5 

vt 47.6359 84.5676
vt 47.6359 37.3235
vt 94.88 37.3235
vt 94.88 84.5676
f 26/76/8 15/77/8 13/78/8 14/79/8 

vt -84.5676 61.6463
vn -0.581238 0.813733 -3.63002e-17
vt -98.3471 44.7126
vt -23.544 44.7126
vt -37.3235 61.6463
f 26/80/16 9/81/16 11/82/16 15/83/16 

vt -33.8563 -62.8658
vn 0 0.813733 -0.581238
vt -47.6359 -45.9321
vt -94.88 -45.9321
vt -108.659 -62.8658
f 9/84/17 26/85/17 14/86/17 10/87/17 

vt -84.5676 39.3701
vn -1 0 -0
vt -37.3235 39.3701
vt -49.1345 72.179
vt -72.7566 72.179
f 26/88/18 15/89/18 23/90/18 22/91/18 

vt -1.05973 86.8284
vn -0.685254 0.246687 0.685254
vt 7.29193 52.9732
vt 15.6436 86.8284
f 23/92/19 15/93/19 17/94/19

vt 7.29193 109.019
vn -0.43683 0.786359 0.43683
vt -1.05973 98.3982
vt 15.6436 98.3982
f 19/95/20 23/96/20 17/97/20

vt 47.6359 49.1345
vt 59.4469 37.3235
vt 83.0689 37.3235
v 2409.95 1833.35 -1248.02
vt 94.88 49.1345
v 2409.95 1833.35 -1848.02
vt 94.88 72.7566
vt 83.0689 84.5676
vt 59.4469 84.5676
vt 47.6359 72.7566
f 23/98/8 17/99/8 16/100/8 27/101/8 28/102/8 25/103/8 24/104/8 22/105/8 

vt 93.482 29.7745
vn 0.43683 0.786359 0.43683
vt 85.1303 19.1538
vt 101.834 19.1538
f 18/106/21 16/107/21 27/108/21

vt 93.482 28.1135
vn 0.685254 0.246687 0.685254
vt 101.834 61.9688
vt 85.1303 61.9688
f 13/109/22 27/110/22 16/111/22

vt 37.3235 39.3701
v 2409.95 1388.9 -1398.02
vt 55.0401 54.681
vt 49.1345 72.179
f 13/112/9 29/113/9 27/114/9

vt 84.5676 39.3701
f 29/113/9 13/112/9 14/115/9

v 2409.95 1388.9 -1698.02
vt 66.8511 54.681
f 29/113/9 14/115/9 30/116/9

v 2409.95 1666.69 -1698.02
vt 66.8511 65.6179
f 30/116/9 14/115/9 31/117/9

vt 72.7566 72.179
f 31/117/9 14/115/9 28/118/9

vt -15.6436 40.7068
vn 0.685254 0.246687 -0.685254
vt -7.29193 6.85156
vt 1.05973 40.7068
f 28/119/23 14/120/23 25/121/23

vt -7.29193 -38.0018
vn 0.43683 0.786359 -0.43683
vt -15.6436 -48.6225
vt 1.05973 -48.6225
f 21/122/24 28/123/24 25/124/24

vt 49.1345 -34.3796
vn 0.485612 0.874174 -0
vt 49.1345 -47.8906
vt 72.7566 -47.8906
vt 72.7566 -34.3796
f 18/125/25 27/126/25 28/127/25 21/128/25 

v 2409.95 1666.69 -1398.02
vt 55.0401 65.6179
f 27/114/9 32/129/9 28/118/9

f 32/129/9 27/114/9 29/113/9

vt 94.88 65.6179
vt 94.88 54.681
v 3809.95 1388.9 -1398.02
vt 149.998 54.681
v 3809.95 1666.69 -1398.02
vt 149.998 65.6179
f 32/130/7 29/131/7 33/132/7 34/133/7 

f 31/117/9 32/129/9 29/113/9 30/116/9 

vt 94.88 66.8511
vt 94.88 55.0401
vt 149.998 55.0401
v 3809.95 1666.69 -1698.02
vt 149.998 66.8511
f 31/134/8 32/135/8 34/136/8 35/137/8 

f 28/118/9 32/129/9 31/117/9

v 3809.95 1388.9 -1698.02
f 36/116/9 35/117/9 34/129/9 33/113/9 

vt -94.88 54.681
vt -94.88 65.6179
vt -149.998 65.6179
vt -149.998 54.681
f 30/138/5 31/139/5 35/140/5 36/141/5 

vt -94.88 55.0401
vt -94.88 66.8511
vt -149.998 66.8511
vt -149.998 55.0401
f 29/142/1 30/143/1 36/144/1 33/145/1 

vt -85.1303 65.5664
vn -0.685254 0.246687 -0.685254
vt -101.834 65.5664
vt -93.482 31.7112
f 22/146/26 24/147/26 26/148/26

vt 110.158 -61.9816
vn 0.857493 0.514496 -1.67434e-18
vt 98.3471 -39.0251
vt 23.544 -39.0251
vt 11.733 -61.9816
f 4/149/27 8/150/27 6/151/27 1/152/27 

