# Alias OBJ Model File
# Exported from SketchUp, (c) 2000-2012 Trimble Navigation Limited
# File units = millimeters

mtllib simple turret 3.mtl

g Mesh1 Model

usemtl FrontColor
v 559.951 0 -298.017
vt -22.0453 11.733
vn 0 -1 -0
v 559.951 0 -3998.02
vt -22.0453 157.402
v 3059.95 0 -3998.02
vt -120.471 157.402
v 3059.95 0 -298.017
vt -120.471 11.733
f 1/1/1 2/2/1 3/3/1 4/4/1 

v 859.951 500 -1198.02
vt -47.166 34.2987
vn -0.857493 0.514496 5.79497e-17
v 859.951 500 -1798.02
vt -70.7881 34.2987
v 859.951 500 -2498.02
vt -98.3471 34.2987
v 859.951 500 -3098.02
vt -121.969 34.2987
v 859.951 500 -3698.02
vt -145.591 34.2987
vt -157.402 11.3422
vt -11.733 11.3422
v 859.951 500 -598.017
vt -23.544 34.2987
f 5/5/2 6/6/2 7/7/2 8/8/2 9/9/2 2/10/2 1/11/2 10/12/2 

vt -98.3471 19.685
vn -1 7.21911e-16 -3.94919e-18
vt -70.7881 19.685
vt -47.166 19.685
vt -23.544 19.685
v 859.951 750 -598.017
vt -23.544 29.5276
v 859.951 750 -1198.02
vt -47.166 29.5276
v 859.951 750 -1798.02
vt -70.7881 29.5276
v 859.951 750 -2498.02
vt -98.3471 29.5276
v 859.951 750 -3098.02
vt -121.969 29.5276
v 859.951 750 -3698.02
vt -145.591 29.5276
vt -145.591 19.685
vt -121.969 19.685
f 7/13/3 6/14/3 5/15/3 10/16/3 11/17/3 12/18/3 13/19/3 14/20/3 15/21/3 16/22/3 9/23/3 8/24/3 

v 2759.95 500 -2498.02
vt -108.659 98.3471
v 2759.95 500 -1798.02
vt -108.659 70.7881
vt -33.8563 70.7881
vt -33.8563 98.3471
f 17/25/1 18/26/1 6/27/1 7/28/1 

vt 11.733 -61.9816
vn 0.857493 0.514496 -2.22029e-18
vt 157.402 -61.9816
v 2759.95 500 -3698.02
vt 145.591 -39.0251
v 2759.95 500 -3098.02
vt 121.969 -39.0251
vt 98.3471 -39.0251
vt 70.7881 -39.0251
v 2759.95 500 -1198.02
vt 47.166 -39.0251
v 2759.95 500 -598.017
vt 23.544 -39.0251
f 4/29/4 3/30/4 19/31/4 20/32/4 17/33/4 18/34/4 21/35/4 22/36/4 

vt -22.0453 -80.9828
vn -2.09598e-31 0.514496 -0.857493
vt -33.8563 -58.0263
vt -108.659 -58.0263
vt -120.471 -80.9828
f 2/37/5 9/38/5 19/39/5 3/40/5 

vt -33.8563 19.685
vn 0 0 -1
vt -33.8563 29.5276
v 2759.95 750 -3698.02
vt -108.659 29.5276
vt -108.659 19.685
f 9/41/6 16/42/6 23/43/6 19/44/6 

vt -33.8563 -101.31
vn 0 0.813733 -0.581238
v 1209.95 1000 -3348.02
vt -47.6359 -84.3762
v 2409.95 1000 -3348.02
vt -94.88 -84.3762
vt -108.659 -101.31
f 16/45/7 24/46/7 25/47/7 23/48/7 

vt -98.3471 44.7126
vn -0.581238 0.813733 -4.03685e-17
vt -70.7881 44.7126
vt -47.166 44.7126
vt -23.544 44.7126
v 1209.95 1000 -948.017
vt -37.3235 61.6463
v 1209.95 1000 -1548.02
vt -60.9456 61.6463
v 1209.95 1000 -2148.02
vt -84.5676 61.6463
v 1209.95 1000 -2748.02
vt -108.19 61.6463
vt -131.812 61.6463
vt -145.591 44.7126
vt -121.969 44.7126
f 14/49/8 13/50/8 12/51/8 11/52/8 26/53/8 27/54/8 28/55/8 29/56/8 24/57/8 16/58/8 15/59/8 

vt 33.8563 98.3471
vn 0 1 -0
vt 33.8563 70.7881
v 2759.95 750 -1798.02
vt 108.659 70.7881
v 2759.95 750 -2498.02
vt 108.659 98.3471
f 14/60/9 13/61/9 30/62/9 31/63/9 

v 2759.95 750 -1198.02
vt 108.659 47.166
vt 33.8563 47.166
f 32/64/9 30/62/9 13/61/9 12/65/9 

vt 98.3471 -71.2573
vn 0.581238 0.813733 5.09704e-20
v 2759.95 750 -3098.02
vt 121.969 -71.2573
vt 145.591 -71.2573
vt 131.812 -54.3236
v 2409.95 1000 -2748.02
vt 108.19 -54.3236
v 2409.95 1000 -2148.02
vt 84.5676 -54.3236
v 2409.95 1000 -1548.02
vt 60.9456 -54.3236
v 2409.95 1000 -948.017
vt 37.3235 -54.3236
v 2759.95 750 -598.017
vt 23.544 -71.2573
vt 47.166 -71.2573
vt 70.7881 -71.2573
f 31/66/10 33/67/10 23/68/10 25/69/10 34/70/10 35/71/10 36/72/10 37/73/10 38/74/10 32/75/10 30/76/10 

vt 108.659 121.969
vt 33.8563 121.969
f 31/63/9 33/77/9 15/78/9 14/60/9 

vt 98.3471 19.685
vn 1 0 -0
vt 121.969 19.685
vt 145.591 19.685
vt 145.591 29.5276
vt 121.969 29.5276
vt 98.3471 29.5276
vt 70.7881 29.5276
vt 47.166 29.5276
vt 23.544 29.5276
vt 23.544 19.685
vt 47.166 19.685
vt 70.7881 19.685
f 17/79/11 20/80/11 19/81/11 23/82/11 33/83/11 31/84/11 30/85/11 32/86/11 38/87/11 22/88/11 21/89/11 18/90/11 

vt -33.8563 121.969
vt -108.659 121.969
f 7/28/1 8/91/1 20/92/1 17/25/1 

vt -108.659 145.591
vt -33.8563 145.591
f 19/93/1 20/92/1 8/91/1 9/94/1 

vt 33.8563 145.591
vt 108.659 145.591
f 16/95/9 15/78/9 33/77/9 23/96/9 

vt 108.659 23.544
vt 33.8563 23.544
f 38/97/9 32/64/9 12/65/9 11/98/9 

vt 108.659 29.5276
vn 0 0 1
vt 33.8563 29.5276
vt 33.8563 19.685
vt 108.659 19.685
f 38/99/12 11/100/12 10/101/12 22/102/12 

vt 108.659 36.3211
vn 2.53257e-18 0.813733 0.581238
vt 94.88 53.2548
vt 47.6359 53.2548
vt 33.8563 36.3211
f 38/103/13 37/104/13 26/105/13 11/106/13 

v 2109.95 1833.35 -948.017
vt 83.0689 72.179
v 1509.95 1833.35 -948.017
vt 59.4469 72.179
vt 47.6359 39.3701
vt 94.88 39.3701
f 39/107/12 40/108/12 26/109/12 37/110/12 

v 2109.95 2000 -1248.02
vt 83.0689 81.1893
vn 0 0.874174 0.485612
v 1509.95 2000 -1248.02
vt 59.4469 81.1893
vt 59.4469 67.6783
vt 83.0689 67.6783
f 41/111/14 42/112/14 40/113/14 39/114/14 

v 2109.95 2000 -1848.02
vt 83.0689 72.7566
v 2109.95 2000 -2448.02
vt 83.0689 96.3786
v 2109.95 2000 -3048.02
vt 83.0689 120.001
v 1509.95 2000 -3048.02
vt 59.4469 120.001
v 1509.95 2000 -2448.02
vt 59.4469 96.3786
v 1509.95 2000 -1848.02
vt 59.4469 72.7566
vt 59.4469 49.1345
vt 83.0689 49.1345
f 43/115/9 44/116/9 45/117/9 46/118/9 47/119/9 48/120/9 42/121/9 41/122/9 

v 2409.95 1833.35 -1848.02
vt 72.7566 -47.8906
vn 0.485612 0.874174 -5.24369e-17
v 2409.95 1833.35 -2448.02
vt 96.3786 -47.8906
v 2409.95 1833.35 -3048.02
vt 120.001 -47.8906
vt 120.001 -34.3796
vt 96.3786 -34.3796
vt 72.7566 -34.3796
vt 49.1345 -34.3796
v 2409.95 1833.35 -1248.02
vt 49.1345 -47.8906
f 49/123/15 50/124/15 51/125/15 45/126/15 44/127/15 43/128/15 41/129/15 52/130/15 

vt 94.88 72.7566
vt 94.88 96.3786
v 2109.95 1833.35 -2148.02
vt 83.0689 84.5676
f 49/131/9 50/132/9 53/133/9

vt 72.7566 72.179
v 2409.95 1666.69 -1998.02
vt 78.6621 65.6179
vt 96.3786 72.179
f 49/134/11 54/135/11 50/136/11

v 2409.95 1388.9 -1998.02
vt 78.6621 54.681
f 54/135/11 49/134/11 55/137/11

v 2409.95 1666.69 -1698.02
vt 66.8511 65.6179
f 56/138/11 55/137/11 49/134/11

vt 84.5676 39.3701
f 56/138/11 35/139/11 55/137/11

v 2409.95 1416.67 -1698.02
vt 66.8511 55.7746
f 57/140/11 35/139/11 56/138/11

v 2409.95 1388.9 -1698.02
vt 66.8511 54.681
f 58/141/11 35/139/11 57/140/11

v 2409.95 1388.9 -1688.02
vt 66.4574 54.681
f 59/142/11 35/139/11 58/141/11

vt 60.9456 39.3701
f 59/142/11 36/143/11 35/139/11

v 2409.95 1388.9 -1398.02
vt 55.0401 54.681
f 60/144/11 36/143/11 59/142/11

vt 37.3235 39.3701
f 60/144/11 37/145/11 36/143/11

vt 49.1345 72.179
f 37/145/11 60/144/11 52/146/11

v 2409.95 1666.69 -1398.02
vt 55.0401 65.6179
f 61/147/11 52/146/11 60/144/11

f 52/146/11 61/147/11 49/134/11

f 49/134/11 61/147/11 56/138/11

vt 94.88 66.8511
vt 94.88 55.0401
v 3809.95 1666.69 -1398.02
vt 149.998 55.0401
v 3809.95 1666.69 -1698.02
vt 149.998 66.8511
f 56/148/9 61/149/9 62/150/9 63/151/9 

f 60/144/11 59/142/11 57/140/11 56/138/11 61/147/11 

vt -94.88 55.0401
vt -94.88 66.4574
vt -94.88 66.8511
v 3809.95 1388.9 -1698.02
vt -149.998 66.8511
v 3809.95 1388.9 -1398.02
vt -149.998 55.0401
f 60/152/1 59/153/1 58/154/1 64/155/1 65/156/1 

f 58/141/11 57/140/11 59/142/11

vt -94.88 55.7746
vt -94.88 65.6179
vt -149.998 65.6179
vt -149.998 54.681
vt -94.88 54.681
f 57/157/6 56/158/6 63/159/6 64/160/6 58/161/6 

f 64/141/11 63/138/11 62/147/11 65/144/11 

vt 94.88 65.6179
vt 94.88 54.681
vt 149.998 54.681
vt 149.998 65.6179
f 61/162/12 60/163/12 65/164/12 62/165/12 

vt 94.88 49.1345
v 2109.95 1833.35 -1548.02
vt 83.0689 60.9456
v 1509.95 1833.35 -1548.02
vt 59.4469 60.9456
v 1209.95 1833.35 -1848.02
vt 47.6359 72.7566
v 1209.95 1833.35 -1248.02
vt 47.6359 49.1345
vt 59.4469 37.3235
vt 83.0689 37.3235
f 52/166/9 49/131/9 66/167/9 67/168/9 68/169/9 69/170/9 40/171/9 39/172/9 

v 1509.95 1833.35 -2148.02
vt 59.4469 84.5676
f 70/173/9 68/169/9 67/168/9 66/167/9 49/131/9 53/133/9 

v 1209.95 1833.35 -2448.02
vt 47.6359 96.3786
f 68/169/9 70/173/9 71/174/9

v 2109.95 1833.35 -2748.02
vt 83.0689 108.19
v 1509.95 1833.35 -2748.02
vt 59.4469 108.19
f 53/133/9 50/132/9 72/175/9 73/176/9 71/174/9 70/173/9 

v 1209.95 1833.35 -3048.02
vt 47.6359 120.001
vt 94.88 120.001
v 2109.95 1833.35 -3348.02
vt 83.0689 131.812
v 1509.95 1833.35 -3348.02
vt 59.4469 131.812
f 74/177/9 71/174/9 73/176/9 72/175/9 50/132/9 51/178/9 75/179/9 76/180/9 

vt -108.19 39.3701
vn -1 3.24855e-17 1.00265e-17
vt -84.5676 39.3701
vt -60.9456 39.3701
vt -37.3235 39.3701
vt -49.1345 72.179
vt -72.7566 72.179
vt -96.3786 72.179
vt -120.001 72.179
vt -131.812 39.3701
f 29/181/16 28/182/16 27/183/16 26/184/16 69/185/16 68/186/16 71/187/16 74/188/16 24/189/16 

vt 47.6359 108.19
vt 47.6359 84.5676
vt 94.88 84.5676
vt 94.88 108.19
f 29/190/9 28/191/9 35/192/9 34/193/9 

vt 94.88 60.9456
vt 47.6359 60.9456
f 36/194/9 35/192/9 28/191/9 27/195/9 

f 53/107/12 70/108/12 28/109/12 35/110/12 

vt 94.88 37.3235
vt 47.6359 37.3235
f 37/196/9 36/194/9 27/195/9 26/197/9 

v 2409.95 1388.9 -2288.02
vt 90.0795 54.681
vt 108.19 39.3701
f 77/198/11 35/139/11 34/199/11

v 2409.95 1388.9 -2008.02
vt 79.0558 54.681
f 78/200/11 35/139/11 77/198/11

f 55/137/11 35/139/11 78/200/11

vt -94.88 78.6621
vt -94.88 79.0558
vt -94.88 90.0795
v 2409.95 1388.9 -2298.02
vt -94.88 90.4731
v 3809.95 1388.9 -2298.02
vt -149.998 90.4731
v 3809.95 1388.9 -1998.02
vt -149.998 78.6621
f 55/201/1 78/202/1 77/203/1 79/204/1 80/205/1 81/206/1 

v 2409.95 1416.67 -1998.02
vt 78.6621 55.7746
f 55/137/11 78/200/11 82/207/11

v 2409.95 1416.67 -2298.02
vt 90.4731 55.7746
v 2409.95 1666.69 -2298.02
vt 90.4731 65.6179
f 78/200/11 77/198/11 83/208/11 84/209/11 54/135/11 82/207/11 

vt 90.4731 54.681
f 79/210/11 83/208/11 77/198/11

v 3809.95 1666.69 -2298.02
f 83/157/6 84/158/6 85/159/6 80/160/6 79/161/6 

f 83/208/11 34/199/11 84/209/11

f 79/210/11 34/199/11 83/208/11

f 77/198/11 34/199/11 79/210/11

v 2409.95 1388.9 -2598.02
vt 102.284 54.681
f 84/209/11 34/199/11 86/211/11

v 2409.95 1388.9 -2608.02
vt 102.678 54.681
f 86/211/11 34/199/11 87/212/11

v 2409.95 1388.9 -2898.02
vt 114.095 54.681
f 87/212/11 34/199/11 88/213/11

vt 131.812 39.3701
f 88/213/11 34/199/11 25/214/11

vt 47.6359 131.812
vt 94.88 131.812
f 24/215/9 29/190/9 34/193/9 25/216/9 

vt -94.88 39.3701
vt -47.6359 39.3701
vt -59.4469 72.179
vt -83.0689 72.179
f 34/217/6 29/218/6 73/219/6 72/220/6 

f 25/217/6 24/218/6 76/219/6 75/220/6 

vt -118.537 57.3254
vn -0.685254 0.246687 -0.685254
vt -135.24 57.3254
vt -126.889 23.4702
f 74/221/17 76/222/17 24/223/17

vt -126.889 14.973
vn -0.43683 0.786359 -0.43683
vt -135.24 4.35235
vt -118.537 4.35235
f 46/224/18 76/225/18 74/226/18

vt -83.0689 -80.1754
vn 0 0.874174 -0.485612
vt -59.4469 -80.1754
vt -59.4469 -66.6644
vt -83.0689 -66.6644
f 75/227/19 76/228/19 46/229/19 45/230/19 

vt 26.1147 -64.2714
vn 0.43683 0.786359 -0.43683
vt 17.763 -74.8921
vt 34.4663 -74.8921
f 45/231/20 51/232/20 75/233/20

vt 17.763 32.4658
vn 0.685254 0.246687 -0.685254
vt 26.1147 -1.38943
vt 34.4663 32.4658
f 51/234/21 25/235/21 75/236/21

v 2409.95 1666.69 -2898.02
vt 114.095 65.6179
vt 120.001 72.179
f 89/237/11 25/214/11 51/238/11

f 88/213/11 25/214/11 89/237/11

v 3809.95 1666.69 -2898.02
v 3809.95 1388.9 -2898.02
f 88/161/6 89/158/6 90/159/6 91/160/6 

v 2409.95 1666.69 -2598.02
vt 102.284 65.6179
v 2409.95 1416.67 -2598.02
vt 102.284 55.7746
f 92/239/11 93/240/11 87/212/11 88/213/11 89/237/11 

vt 94.88 55.7746
v 3809.95 1388.9 -2598.02
v 3809.95 1666.69 -2598.02
f 93/241/12 86/163/12 94/164/12 95/165/12 92/162/12 

f 86/211/11 87/212/11 93/240/11

vt -94.88 102.284
vt -94.88 102.678
vt -94.88 114.095
vt -149.998 114.095
vt -149.998 102.284
f 86/242/1 87/243/1 88/244/1 91/245/1 94/246/1 

f 91/213/11 90/237/11 95/239/11 94/211/11 

vt 94.88 114.095
vt 94.88 102.284
vt 149.998 102.284
vt 149.998 114.095
f 89/247/9 92/248/9 95/249/9 90/250/9 

f 51/238/11 92/239/11 89/237/11

f 50/136/11 92/239/11 51/238/11

f 92/239/11 50/136/11 86/211/11

f 84/209/11 86/211/11 50/136/11

f 50/136/11 54/135/11 84/209/11

vt 94.88 90.4731
vt 94.88 78.6621
v 3809.95 1666.69 -1998.02
vt 149.998 78.6621
vt 149.998 90.4731
f 84/251/9 54/252/9 96/253/9 85/254/9 

f 82/241/12 55/163/12 81/164/12 96/165/12 54/162/12 

f 54/135/11 55/137/11 82/207/11

f 80/210/11 85/209/11 96/135/11 81/137/11 

f 92/239/11 86/211/11 93/240/11

vt -72.7566 90.2041
vn -0.485612 0.874174 6.23308e-17
vt -96.3786 90.2041
vt -120.001 90.2041
vt -120.001 76.6931
vt -96.3786 76.6931
vt -72.7566 76.6931
vt -49.1345 76.6931
vt -49.1345 90.2041
f 48/255/22 47/256/22 46/257/22 74/258/22 71/259/22 68/260/22 69/261/22 42/262/22 

vt 7.29193 109.019
vn -0.43683 0.786359 0.43683
vt -1.05973 98.3982
vt 15.6436 98.3982
f 42/263/23 69/264/23 40/265/23

vt -1.05973 86.8284
vn -0.685254 0.246687 0.685254
vt 7.29193 52.9732
vt 15.6436 86.8284
f 69/266/24 26/267/24 40/268/24

vt 93.482 29.7745
vn 0.43683 0.786359 0.43683
vt 85.1303 19.1538
vt 101.834 19.1538
f 41/269/25 39/270/25 52/271/25

vt 93.482 28.1135
vn 0.685254 0.246687 0.685254
vt 101.834 61.9688
vt 85.1303 61.9688
f 37/272/26 52/273/26 39/274/26

vt 33.8563 28.9931
vn 4.46508e-18 0.514496 0.857493
vt 22.0453 6.03656
vt 120.471 6.03656
vt 108.659 28.9931
f 10/275/27 1/276/27 4/277/27 22/278/27 

vt -33.8563 23.544
vt -33.8563 47.166
vt -108.659 47.166
vt -108.659 23.544
f 10/279/1 5/280/1 21/281/1 22/282/1 

f 5/280/1 6/27/1 18/26/1 21/281/1 

