# Alias OBJ Model File
# Exported from SketchUp, (c) 2000-2012 Trimble Navigation Limited
# File units = millimeters

mtllib simple turret 4.mtl

g Mesh1 Model

usemtl FrontColor
v 859.951 500 -598.017
vt 33.8563 28.9931
vn 4.46508e-18 0.514496 0.857493
v 559.951 0 -298.017
vt 22.0453 6.03656
v 3059.95 0 -298.017
vt 120.471 6.03656
v 2759.95 500 -598.017
vt 108.659 28.9931
f 1/1/1 2/2/1 3/3/1 4/4/1 

vt -23.544 34.2987
vn -0.857493 0.514496 2.91285e-17
v 859.951 500 -1198.02
vt -47.166 34.2987
v 859.951 500 -2498.02
vt -98.3471 34.2987
v 859.951 500 -3098.02
vt -121.969 34.2987
v 559.951 0 -3398.02
vt -133.78 11.3422
vt -11.733 11.3422
f 1/5/2 5/6/2 6/7/2 7/8/2 8/9/2 2/10/2 

v 859.951 750 -1198.02
vt -47.166 29.5276
vn -1 3.60956e-16 -1.59111e-17
v 859.951 750 -2498.02
vt -98.3471 29.5276
v 859.951 750 -3098.02
vt -121.969 29.5276
vt -121.969 19.685
vt -98.3471 19.685
vt -47.166 19.685
vt -23.544 19.685
v 859.951 750 -598.017
vt -23.544 29.5276
f 9/11/3 10/12/3 11/13/3 7/14/3 6/15/3 5/16/3 1/17/3 12/18/3 

vt -98.3471 44.7126
vn -0.581238 0.813733 -1.40381e-17
vt -47.166 44.7126
vt -23.544 44.7126
v 1209.95 1000 -948.017
vt -37.3235 61.6463
v 1209.95 1000 -1548.02
vt -60.9456 61.6463
v 1209.95 1000 -2148.02
vt -84.5676 61.6463
v 1209.95 1000 -2748.02
vt -108.19 61.6463
vt -121.969 44.7126
f 10/19/4 9/20/4 12/21/4 13/22/4 14/23/4 15/24/4 16/25/4 11/26/4 

v 2759.95 750 -598.017
vt 108.659 23.544
vn 0 1 -0
v 2759.95 750 -1198.02
vt 108.659 47.166
vt 33.8563 47.166
vt 33.8563 23.544
f 17/27/5 18/28/5 9/29/5 12/30/5 

v 2409.95 1000 -2148.02
vt 84.5676 -54.3236
vn 0.581238 0.813733 1.4777e-18
v 2409.95 1000 -1548.02
vt 60.9456 -54.3236
v 2409.95 1000 -948.017
vt 37.3235 -54.3236
vt 23.544 -71.2573
vt 47.166 -71.2573
v 2759.95 750 -2498.02
vt 98.3471 -71.2573
v 2759.95 750 -3098.02
vt 121.969 -71.2573
v 2409.95 1000 -2748.02
vt 108.19 -54.3236
f 19/31/6 20/32/6 21/33/6 17/34/6 18/35/6 22/36/6 23/37/6 24/38/6 

v 2409.95 1388.9 -1688.02
vt 66.4574 54.681
vn 1 8.44035e-17 -1.92235e-17
vt 60.9456 39.3701
vt 84.5676 39.3701
f 25/39/7 20/40/7 19/41/7

v 2409.95 1388.9 -1398.02
vt 55.0401 54.681
f 26/42/7 20/40/7 25/39/7

vt 37.3235 39.3701
f 26/42/7 21/43/7 20/40/7

v 2409.95 2666.69 -1248.02
vt 49.1345 104.988
f 21/43/7 26/42/7 27/44/7

v 2409.95 2277.8 -1398.02
vt 55.0401 89.677
f 27/44/7 26/42/7 28/45/7

v 2409.95 2000 -1398.02
vt 55.0401 78.7402
f 28/45/7 26/42/7 29/46/7

v 2409.95 1666.69 -1398.02
vt 55.0401 65.6179
f 30/47/7 29/46/7 26/42/7

v 2409.95 2000 -1698.02
vt 66.8511 78.7402
f 29/46/7 30/47/7 31/48/7

v 2409.95 1666.69 -1698.02
vt 66.8511 65.6179
f 31/48/7 30/47/7 32/49/7

vt 94.88 66.8511
vt 94.88 55.0401
v 3809.95 1666.69 -1398.02
vt 149.998 55.0401
v 3809.95 1666.69 -1698.02
vt 149.998 66.8511
f 32/50/5 30/51/5 33/52/5 34/53/5 

vn 1 0 -0
v 2409.95 1416.67 -1698.02
vt 66.8511 55.7746
f 26/42/8 25/39/8 35/54/8 32/49/8 30/47/8 

vt -94.88 55.0401
vn 0 -1 -0
vt -94.88 66.4574
v 2409.95 1388.9 -1698.02
vt -94.88 66.8511
v 3809.95 1388.9 -1698.02
vt -149.998 66.8511
v 3809.95 1388.9 -1398.02
vt -149.998 55.0401
f 26/55/9 25/56/9 36/57/9 37/58/9 38/59/9 

vt 66.8511 54.681
f 36/60/8 35/54/8 25/39/8

vt -94.88 55.7746
vn 0 0 -1
vt -94.88 65.6179
vt -149.998 65.6179
vt -149.998 54.681
vt -94.88 54.681
f 35/61/10 32/62/10 34/63/10 37/64/10 36/65/10 

f 35/54/7 19/41/7 32/49/7

f 36/60/7 19/41/7 35/54/7

f 25/39/7 19/41/7 36/60/7

v 2409.95 1388.9 -1998.02
vt 78.6621 54.681
f 32/49/7 19/41/7 39/66/7

v 2409.95 1388.9 -2008.02
vt 79.0558 54.681
f 39/66/7 19/41/7 40/67/7

v 2409.95 1388.9 -2298.02
vt 90.4731 54.681
f 40/67/7 19/41/7 41/68/7

vt 108.19 39.3701
f 41/68/7 19/41/7 24/69/7

vt 47.6359 108.19
vt 47.6359 84.5676
vt 94.88 84.5676
vt 94.88 108.19
f 16/70/5 15/71/5 19/72/5 24/73/5 

vt -37.3235 39.3701
vn -1 5.41888e-17 4.05067e-17
v 1209.95 2666.69 -1248.02
vt -49.1345 104.988
v 1209.95 2666.69 -1548.02
vt -60.9456 104.988
v 1209.95 2666.69 -1848.02
vt -72.7566 104.988
v 1209.95 2666.69 -2148.02
vt -84.5676 104.988
v 1209.95 2666.69 -2448.02
vt -96.3786 104.988
vt -108.19 39.3701
vt -84.5676 39.3701
vt -60.9456 39.3701
f 13/74/11 42/75/11 43/76/11 44/77/11 45/78/11 46/79/11 16/80/11 15/81/11 14/82/11 

vt 7.29193 46.64
vn -0.701448 0.126259 0.701448
v 1509.95 2666.69 -948.017
vt 15.6436 112.787
vt -1.05973 112.787
f 13/83/12 47/84/12 42/85/12

vt 47.6359 39.3701
vn 3.09667e-16 -8.43055e-16 1
vt 94.88 39.3701
v 2109.95 2666.69 -948.017
vt 83.0689 104.988
v 1809.95 2666.69 -948.017
vt 71.2579 104.988
vt 59.4469 104.988
f 13/86/13 21/87/13 48/88/13 49/89/13 47/90/13 

vt 108.659 36.3211
vn 2.53257e-18 0.813733 0.581238
vt 94.88 53.2548
vt 47.6359 53.2548
vt 33.8563 36.3211
f 17/91/14 21/92/14 13/93/14 12/94/14 

vt 94.88 37.3235
vt 94.88 60.9456
vt 47.6359 60.9456
vt 47.6359 37.3235
f 21/95/5 20/96/5 14/97/5 13/98/5 

vt 108.659 29.5276
vn 0 0 1
vt 33.8563 29.5276
vt 33.8563 19.685
vt 108.659 19.685
f 17/99/15 12/100/15 1/101/15 4/102/15 

vt -33.8563 23.544
vt -33.8563 47.166
v 2759.95 500 -1198.02
vt -108.659 47.166
vt -108.659 23.544
f 1/103/9 5/104/9 50/105/9 4/106/9 

v 2759.95 500 -2498.02
vt 98.3471 -39.0251
vn 0.857493 0.514496 1.18892e-18
vt 47.166 -39.0251
vt 23.544 -39.0251
vt 11.733 -61.9816
v 3059.95 0 -3398.02
vt 133.78 -61.9816
v 2759.95 500 -3098.02
vt 121.969 -39.0251
f 51/107/16 50/108/16 4/109/16 3/110/16 52/111/16 53/112/16 

vt 98.3471 29.5276
vt 47.166 29.5276
vt 23.544 29.5276
vt 23.544 19.685
vt 47.166 19.685
vt 98.3471 19.685
vt 121.969 19.685
vt 121.969 29.5276
f 22/113/8 18/114/8 17/115/8 4/116/8 50/117/8 51/118/8 53/119/8 23/120/8 

vt -108.659 121.969
vt -108.659 98.3471
vt -33.8563 98.3471
vt -33.8563 121.969
f 53/121/9 51/122/9 6/123/9 7/124/9 

vt -22.0453 -68.8294
vn -5.10295e-18 0.514496 -0.857493
vt -33.8563 -45.8728
vt -108.659 -45.8728
vt -120.471 -68.8294
f 8/125/17 7/126/17 53/127/17 52/128/17 

vt -33.8563 19.685
vt -33.8563 29.5276
vt -108.659 29.5276
vt -108.659 19.685
f 7/129/10 11/130/10 23/131/10 53/132/10 

vt -33.8563 -82.0879
vn -1.04971e-32 0.813733 -0.581238
vt -47.6359 -65.1542
vt -94.88 -65.1542
vt -108.659 -82.0879
f 11/133/18 16/134/18 24/135/18 23/136/18 

vt -94.88 39.3701
vn 2.19348e-16 2.22144e-15 -1
vt -47.6359 39.3701
v 1509.95 2666.69 -2748.02
vt -59.4469 104.988
v 1809.95 2666.69 -2748.02
vt -71.2579 104.988
v 2109.95 2666.69 -2748.02
vt -83.0689 104.988
f 24/137/19 16/138/19 54/139/19 55/140/19 56/141/19 

vt -110.185 33.6489
vn -0.701448 0.126259 -0.701448
vt -101.834 99.7961
vt -118.537 99.7961
f 16/142/20 46/143/20 54/144/20

vt 47.6359 96.3786
vn -5.29402e-15 1 2.88765e-15
v 1509.95 2666.69 -2148.02
vt 59.4469 84.5676
v 1809.95 2666.69 -2148.02
vt 71.2579 84.5676
vt 71.2579 108.19
vt 59.4469 108.19
f 46/145/21 45/71/21 57/146/21 58/147/21 55/148/21 54/149/21 

vt -96.3786 92.6255
vn -0.485612 0.874174 2.33627e-16
vt -84.5676 92.6255
vt -72.7566 92.6255
vt -60.9456 92.6255
vt -49.1345 92.6255
v 1509.95 2833.35 -1248.02
vt -49.1345 106.137
v 1509.95 2833.35 -1848.02
vt -72.7566 106.137
v 1509.95 2833.35 -2448.02
vt -96.3786 106.137
f 46/150/22 45/151/22 44/152/22 43/153/22 42/154/22 59/155/22 60/156/22 61/157/22 

vt 47.6359 72.7566
vn 2.40637e-15 1 2.40637e-15
f 44/158/23 57/146/23 45/71/23

vn -9.62549e-16 1 1.9251e-15
v 1809.95 2666.69 -1848.02
vt 71.2579 72.7566
f 44/158/24 62/159/24 58/147/24 57/146/24 

v 1509.95 2666.69 -1548.02
vt 59.4469 60.9456
v 1809.95 2666.69 -1548.02
vt 71.2579 60.9456
f 63/160/5 64/161/5 62/159/5 44/158/5 

vn -5.25026e-16 1 -3.06265e-16
vt 47.6359 49.1345
vt 59.4469 37.3235
vt 71.2579 37.3235
f 64/161/25 63/160/25 43/97/25 42/162/25 47/163/25 49/164/25 

vn -2.40637e-15 1 2.40637e-15
f 44/158/26 43/97/26 63/160/26

vt 7.29193 129.287
vn -0.43683 0.786359 0.43683
vt -1.05973 118.667
vt 15.6436 118.667
f 59/165/27 42/166/27 47/167/27

v 2109.95 2833.35 -1248.02
vt 83.0689 97.1217
vn 0 0.874174 0.485612
vt 59.4469 97.1217
vt 59.4469 83.6107
vt 71.2579 83.6107
vt 83.0689 83.6107
f 65/168/28 59/169/28 47/170/28 49/171/28 48/172/28 

vt 59.4469 96.3786
vt 59.4469 72.7566
vt 59.4469 49.1345
vt 83.0689 49.1345
v 2109.95 2833.35 -1848.02
vt 83.0689 72.7566
v 2109.95 2833.35 -2448.02
vt 83.0689 96.3786
f 61/173/5 60/174/5 59/175/5 65/176/5 66/177/5 67/178/5 

vt 96.3786 -18.4472
vn 0.485612 0.874174 1.06657e-16
vt 72.7566 -18.4472
vt 49.1345 -18.4472
vt 49.1345 -31.9582
v 2409.95 2666.69 -1548.02
vt 60.9456 -31.9582
v 2409.95 2666.69 -1848.02
vt 72.7566 -31.9582
v 2409.95 2666.69 -2148.02
vt 84.5676 -31.9582
v 2409.95 2666.69 -2448.02
vt 96.3786 -31.9582
f 67/179/29 66/180/29 65/181/29 27/182/29 68/183/29 69/184/29 70/185/29 71/186/29 

vt 93.482 50.0429
vn 0.43683 0.786359 0.43683
vt 85.1303 39.4222
vt 101.834 39.4222
f 65/187/30 48/188/30 27/189/30

vt 94.88 49.1345
vn 5.25026e-16 1 -3.06265e-16
v 2109.95 2666.69 -1548.02
vt 83.0689 60.9456
vt 83.0689 37.3235
f 27/190/31 68/96/31 72/191/31 64/161/31 49/164/31 48/192/31 

vt 60.9456 104.988
f 28/45/7 68/193/7 27/44/7

v 2409.95 2277.8 -1688.02
vt 66.4574 89.677
f 68/193/7 28/45/7 73/194/7

v 2409.95 2277.8 -1698.02
vn 6.10374e-16 1 7.47128e-15
vt 94.88 66.4574
v 3809.95 2277.8 -1398.02
v 3809.95 2277.8 -1698.02
f 74/50/32 73/195/32 28/51/32 75/52/32 76/53/32 

vt 66.8511 89.677
v 2409.95 2250.02 -1698.02
vt 66.8511 88.5835
f 74/196/8 73/194/8 77/197/8

vt 72.7566 104.988
f 69/198/7 73/194/7 74/196/7

f 68/193/7 73/194/7 69/198/7

vt 94.88 72.7566
f 69/199/23 72/191/23 68/96/23

f 69/199/5 62/159/5 64/161/5 72/191/5 

v 2109.95 2666.69 -2148.02
vt 83.0689 84.5676
vn 9.62549e-16 1 1.9251e-15
f 78/200/33 58/147/33 62/159/33 69/199/33 

vn 5.29402e-15 1 2.88765e-15
vt 94.88 96.3786
vt 83.0689 108.19
f 58/147/34 78/200/34 70/72/34 71/201/34 56/202/34 55/148/34 

f 69/199/26 70/72/26 78/200/26

v 2409.95 2277.8 -1998.02
vt 78.6621 89.677
vt 84.5676 104.988
f 69/198/7 79/203/7 70/204/7

v 2409.95 2000 -1998.02
vt 78.6621 78.7402
f 79/203/7 69/198/7 80/205/7

f 69/198/7 39/66/7 80/205/7

f 32/49/7 39/66/7 69/198/7

f 69/198/7 74/196/7 32/49/7

f 31/48/7 32/49/7 74/196/7

f 74/196/7 77/197/7 31/48/7

vt -94.88 88.5835
vn -1.24252e-15 5.00971e-15 -1
vt -94.88 89.677
vt -149.998 89.677
v 3809.95 2000 -1698.02
vt -149.998 78.7402
vt -94.88 78.7402
f 77/206/35 74/207/35 76/208/35 81/209/35 31/210/35 

v 3809.95 2000 -1398.02
f 75/45/8 82/46/8 81/48/8 76/196/8 

vt 94.88 89.677
vn 0 -2.07897e-14 1
vt 94.88 78.7402
vt 149.998 78.7402
vt 149.998 89.677
f 28/211/36 29/212/36 82/213/36 75/214/36 

f 31/48/8 77/197/8 73/194/8 28/45/8 29/46/8 

vn 0 -1 9.62549e-15
f 29/55/37 31/57/37 81/58/37 82/59/37 

v 2409.95 1666.69 -1998.02
vt 78.6621 65.6179
f 83/215/7 80/205/7 39/66/7

v 2409.95 2000 -2298.02
vt 90.4731 78.7402
f 80/205/7 83/215/7 84/216/7

v 2409.95 1666.69 -2298.02
vt 90.4731 65.6179
f 84/216/7 83/215/7 85/217/7

vt 94.88 90.4731
vt 94.88 78.6621
v 3809.95 1666.69 -1998.02
vt 149.998 78.6621
v 3809.95 1666.69 -2298.02
vt 149.998 90.4731
f 85/218/5 83/219/5 86/220/5 87/221/5 

v 2409.95 1416.67 -1998.02
vt 78.6621 55.7746
f 83/215/8 88/222/8 40/67/8 41/68/8 85/217/8 

vt 94.88 55.7746
vt 94.88 54.681
v 3809.95 1388.9 -1998.02
vt 149.998 54.681
vt 149.998 65.6179
vt 94.88 65.6179
f 88/223/15 39/224/15 89/225/15 86/226/15 83/227/15 

f 39/66/8 40/67/8 88/222/8

vt -94.88 78.6621
vt -94.88 79.0558
vt -94.88 90.4731
v 3809.95 1388.9 -2298.02
vt -149.998 90.4731
vt -149.998 78.6621
f 39/228/9 40/229/9 41/230/9 90/231/9 89/232/9 

f 41/65/10 85/62/10 87/63/10 90/64/10 

f 41/68/7 24/69/7 85/217/7

vt 96.3786 104.988
f 85/217/7 24/69/7 71/233/7

vt 9.41138 20.9253
vn 0.701448 0.126259 -0.701448
vt 17.763 87.0726
vt 1.05973 87.0726
f 24/234/38 56/235/38 71/236/38

vt 9.41138 -30.8682
vn 0.43683 0.786359 -0.43683
vt 1.05973 -41.4889
vt 17.763 -41.4889
f 67/237/39 71/238/39 56/239/39

vt -71.2579 -43.5932
vn 4.63804e-21 0.874174 -0.485612
vt -59.4469 -43.5932
vt -59.4469 -30.0822
vt -83.0689 -30.0822
vt -83.0689 -43.5932
f 55/240/40 54/241/40 61/242/40 67/243/40 56/244/40 

vt -110.185 48.3762
vn -0.43683 0.786359 -0.43683
vt -118.537 37.7555
vt -101.834 37.7555
f 61/245/41 54/246/41 46/247/41

v 2409.95 2277.8 -2298.02
vt 90.4731 89.677
f 71/233/7 91/248/7 85/217/7

f 70/204/7 91/248/7 71/233/7

v 2409.95 2277.8 -2008.02
vt 79.0558 89.677
f 70/204/7 92/249/7 91/248/7

f 70/204/7 79/203/7 92/249/7

vn 6.10374e-16 1 -7.47128e-15
vt 94.88 79.0558
v 3809.95 2277.8 -1998.02
v 3809.95 2277.8 -2298.02
f 91/218/42 92/250/42 79/219/42 93/220/42 94/221/42 

v 2409.95 2250.02 -1998.02
vt 78.6621 88.5835
f 91/248/8 92/249/8 95/251/8 80/205/8 84/216/8 

f 79/203/8 95/251/8 92/249/8

vt 94.88 88.5835
vn -1.24234e-16 2.12906e-14 1
v 3809.95 2000 -1998.02
f 95/252/43 80/212/43 96/213/43 93/214/43 79/211/43 

f 79/203/7 80/205/7 95/251/7

v 3809.95 2000 -2298.02
f 80/228/37 84/230/37 97/231/37 96/232/37 

f 84/210/10 91/207/10 94/208/10 97/209/10 

f 84/216/7 85/217/7 91/248/7

f 93/203/8 96/205/8 97/216/8 94/248/8 

f 90/68/8 87/217/8 86/215/8 89/66/8 

f 83/215/7 39/66/7 88/222/7

vt 93.482 33.9165
vn 0.701448 0.126259 0.701448
vt 101.834 100.064
vt 85.1303 100.064
f 21/253/44 27/254/44 48/255/44

vt 33.8563 121.969
vt 33.8563 98.3471
vt 108.659 98.3471
vt 108.659 121.969
f 11/256/5 10/257/5 22/258/5 23/259/5 

f 37/60/8 34/49/8 33/47/8 38/42/8 

f 30/227/15 26/224/15 38/225/15 33/226/15 

